:SAMPLES-PER-SECOND 30
:FULLY-SPECIFIED
:DEGREES
244
root  2.2036 29.3913 -23.5257 -160.67 8.54912 -175.875
RightUpLeg  -76.1805 -0.0775312 11.7284
RightLeg  72.2183 13.5662 -9.87202
RightFoot  -16.8895 -0.0131938 -2.06597
RightToes  -1.16415e-010 -3.18055e-015 -2.98177e-016
Spine  42.812 -3.19896 4.31552
Spine1  -10.7285 -3.63032 8.38782
HEad  -37.7678 -7.7025 6.67952
LeftShoulder1  -3.88251e-019 9.70628e-020 -3.87848e-018
LeftArm  -34.6273 30.1679 -46.051
LeftForeArm  -1.97773 -40.609 9.63924
LeftHand  -8.13055 -11.099 54.4868
RightShoulder  4.41664 8.91487 21.6756
RightArm  1.14677 -48.2992 16.2723
RightForeArm  -3.47439 48.1688 -30.2323
RightHand  -0.341538 -0.716834 -8.1937
LeftUpLeg  -41.4333 4.54705 3.8461
LeftLeg  83.6115 -12.8815 13.6333
LeftFoot  -42.5228 -5.67049 -20.9201
LeftToes  1.69338e-011 3.79281e-011 -2.20049e-011
245
root  2.35362 29.6937 -24.0347 -160.343 8.5182 -176.581
RightUpLeg  -75.1825 -0.00998726 10.8661
RightLeg  71.8182 13.434 -10.1393
RightFoot  -18.1119 -0.0144322 -1.6787
RightToes  -1.16415e-010 -3.18055e-015 -2.98177e-016
Spine  42.1191 -3.31579 4.49836
Spine1  -10.5443 -3.75429 8.81316
HEad  -36.9357 -7.64532 5.77202
LeftShoulder1  -3.88251e-019 9.70628e-020 -3.87848e-018
LeftArm  -34.2987 30.4101 -45.713
LeftForeArm  -1.51 -41.0317 9.81752
LeftHand  -7.80954 -10.8362 53.3868
RightShoulder  4.34671 8.841 21.3889
RightArm  1.02201 -48.7786 15.778
RightForeArm  -3.67454 48.5666 -30.6681
RightHand  -0.325384 -0.849676 -8.00856
LeftUpLeg  -40.8463 4.73878 3.16024
LeftLeg  82.6182 -12.6586 13.6155
LeftFoot  -40.2186 -5.34904 -21.4624
LeftToes  1.69338e-011 3.79281e-011 -2.20049e-011
246
root  2.5051 29.9932 -24.5721 -160.367 8.51794 -177.122
RightUpLeg  -73.7398 0.0860888 10.1438
RightLeg  71.4006 13.3019 -10.3782
RightFoot  -19.3663 -0.00651084 -1.27539
RightToes  -1.16415e-010 -3.18055e-015 -2.98177e-016
Spine  41.6838 -3.47165 4.93808
Spine1  -10.3656 -3.78958 9.02177
HEad  -35.7223 -7.37564 4.45054
LeftShoulder1  -3.88251e-019 9.70628e-020 -3.87848e-018
LeftArm  -33.8666 31.131 -45.3749
LeftForeArm  -1.20281 -41.5927 10.0417
LeftHand  -7.52702 -10.6028 52.3855
RightShoulder  4.30056 8.78205 21.2168
RightArm  0.68792 -49.0801 15.2379
RightForeArm  -3.92313 48.7235 -30.8313
RightHand  -0.263999 -1.45462 -7.39404
LeftUpLeg  -40.3167 4.93121 2.6252
LeftLeg  82.2335 -12.538 14.3415
LeftFoot  -36.2211 -4.70559 -22.2441
LeftToes  1.69338e-011 3.79281e-011 -2.20049e-011
247
root  2.65195 30.268 -25.133 -160.569 8.42752 -177.614
RightUpLeg  -72.1137 0.1301 9.46006
RightLeg  71.0955 13.1775 -10.6531
RightFoot  -20.5041 0.0232987 -0.671307
RightToes  -1.16415e-010 -3.18055e-015 -2.98177e-016
Spine  41.427 -3.68299 5.62893
Spine1  -10.3915 -3.75993 9.02866
HEad  -33.9704 -7.00577 2.75295
LeftShoulder1  -3.88251e-019 9.70628e-020 -3.87848e-018
LeftArm  -33.2075 32.1583 -45.0852
LeftForeArm  -1.15439 -42.1406 10.2516
LeftHand  -7.36751 -10.5883 51.4635
RightShoulder  4.32022 8.7802 21.3396
RightArm  0.647257 -49.0843 14.2041
RightForeArm  -3.79223 48.8315 -30.9643
RightHand  -0.198005 -2.09312 -6.47414
LeftUpLeg  -40.5885 4.89412 2.34262
LeftLeg  83.1574 -12.7382 14.8532
LeftFoot  -30.3275 -3.76875 -24.0691
LeftToes  1.69338e-011 3.79281e-011 -2.20049e-011
248
root  2.78534 30.5275 -25.7207 -160.713 8.24268 -178.184
RightUpLeg  -70.5402 0.0785074 8.69753
RightLeg  70.8721 13.0599 -10.9494
RightFoot  -21.7229 0.0685096 -0.0244808
RightToes  -1.16415e-010 -3.18055e-015 -2.98177e-016
Spine  41.1089 -3.90717 6.49726
Spine1  -10.5409 -3.69813 8.71244
HEad  -31.7683 -6.81551 0.943765
LeftShoulder1  -3.88251e-019 9.70628e-020 -3.87848e-018
LeftArm  -32.5809 33.2825 -44.9285
LeftForeArm  -1.17121 -42.7244 10.4757
LeftHand  -7.33477 -10.7612 50.7709
RightShoulder  4.34209 8.77664 21.4791
RightArm  0.682222 -49.1495 13.0429
RightForeArm  -2.72179 49.1951 -31.4581
RightHand  -0.166297 -2.10589 -5.41934
LeftUpLeg  -42.548 4.72819 2.1025
LeftLeg  85.4807 -13.3275 15.5705
LeftFoot  -21.4086 -1.95041 -25.6407
LeftToes  1.69338e-011 3.79281e-011 -2.20049e-011
249
root  2.90723 30.7824 -26.3338 -160.841 8.08008 -178.728
RightUpLeg  -68.9078 -0.0274757 7.97273
RightLeg  70.6239 12.9668 -11.1262
RightFoot  -23.1357 0.120687 0.521877
RightToes  -1.16415e-010 -3.18055e-015 -2.98177e-016
Spine  40.687 -4.05253 7.39934
Spine1  -10.6131 -3.61855 8.15753
HEad  -29.3088 -6.78504 -0.708157
LeftShoulder1  -3.88251e-019 9.70628e-020 -3.87848e-018
LeftArm  -32.3058 34.641 -44.959
LeftForeArm  -1.23459 -43.6282 10.8295
LeftHand  -7.27437 -10.7915 50.3195
RightShoulder  4.32039 8.73112 21.4309
RightArm  0.501564 -49.3275 12.306
RightForeArm  -1.06527 49.8677 -32.3768
RightHand  -0.173653 -1.38051 -4.69773
LeftUpLeg  -46.3203 4.99947 1.62339
LeftLeg  88.2693 -14.2271 18.0044
LeftFoot  -8.10676 0.907298 -22.9078
LeftToes  1.69338e-011 3.79281e-011 -2.20049e-011
250
root  3.00965 30.9587 -26.9322 -161.132 7.99464 -178.958
RightUpLeg  -67.1952 -0.157246 7.61888
RightLeg  70.5913 12.9659 -11.1103
RightFoot  -24.6079 0.179373 0.98973
RightToes  -1.16415e-010 -3.18055e-015 -2.98177e-016
Spine  40.2477 -4.09945 8.35846
Spine1  -10.5392 -3.55645 7.76324
HEad  -26.6651 -6.5558 -2.20679
LeftShoulder1  -3.88251e-019 9.70628e-020 -3.87848e-018
LeftArm  -32.2465 36.4133 -45.0303
LeftForeArm  -1.56795 -44.8453 11.3128
LeftHand  -7.11013 -10.5698 49.9405
RightShoulder  4.29658 8.6877 21.3658
RightArm  0.147289 -49.1435 12.0906
RightForeArm  0.0386314 50.6459 -33.4299
RightHand  -0.202435 -0.50069 -4.58471
LeftUpLeg  -51.052 6.09455 0.885725
LeftLeg  90.5561 -15.3865 21.6995
LeftFoot  6.30297 2.5326 -14.7406
LeftToes  1.69338e-011 3.79281e-011 -2.20049e-011
251
root  3.0988 31.0539 -27.5179 -161.595 7.91769 -179.011
RightUpLeg  -65.4518 -0.444998 7.54784
RightLeg  70.8659 13.0594 -10.9602
RightFoot  -26.0825 0.234311 1.31702
RightToes  -1.16415e-010 -3.18055e-015 -2.98177e-016
Spine  39.8292 -4.08777 9.17976
Spine1  -10.2776 -3.5465 7.52522
HEad  -23.9644 -5.93511 -3.77215
LeftShoulder1  -3.88251e-019 9.70628e-020 -3.87848e-018
LeftArm  -32.0025 38.3792 -44.8872
LeftForeArm  -1.91177 -45.8562 11.7285
LeftHand  -7.02564 -10.4782 49.6773
RightShoulder  4.28883 8.66457 21.3611
RightArm  -0.331589 -48.4581 12.2691
RightForeArm  -0.0949284 51.4631 -34.5008
RightHand  -0.242737 0.0954228 -4.97384
LeftUpLeg  -55.5323 7.74327 -0.299032
LeftLeg  92.0312 -16.5248 25.0063
LeftFoot  13.6528 1.62732 -6.41023
LeftToes  1.69338e-011 3.79281e-011 -2.20049e-011
